<svg width="76" height="76" viewBox="0 0 76 76" fill="none" xmlns="http://www.w3.org/2000/svg">
<path d="M46.5183 21.2484C46.8118 21.5413 47.0447 21.8893 47.2036 22.2724C47.3625 22.6555 47.4443 23.0661 47.4443 23.4809C47.4443 23.8956 47.3625 24.3063 47.2036 24.6893C47.0447 25.0724 46.8118 25.4204 46.5183 25.7134L34.2316 38L46.5183 50.2867C47.1104 50.8788 47.443 51.6818 47.443 52.5192C47.443 53.3565 47.1104 54.1596 46.5183 54.7517C45.9262 55.3438 45.1231 55.6764 44.2858 55.6764C43.4484 55.6764 42.6454 55.3438 42.0533 54.7517L27.5183 40.2167C27.2247 39.9237 26.9918 39.5758 26.8329 39.1927C26.674 38.8096 26.5922 38.3989 26.5922 37.9842C26.5922 37.5695 26.674 37.1588 26.8329 36.7757C26.9918 36.3926 27.2247 36.0447 27.5183 35.7517L42.0533 21.2167C43.2566 20.0134 45.2833 20.0134 46.5183 21.2484Z" fill="white"/>
</svg>
